<svg width="366" height="209" viewBox="0 0 366 209" fill="none" xmlns="http://www.w3.org/2000/svg">
<rect x="89" width="174.394" height="169" rx="84.5" fill="#FFCC00"/>
<path d="M203 118.412V123.925C203 125.2 202.569 126.269 201.706 127.131C200.844 127.994 199.775 128.425 198.5 128.425C197.225 128.425 196.156 127.994 195.294 127.131C194.431 126.269 194 125.2 194 123.925V109.75C194 107.875 194.656 106.281 195.969 104.969C197.281 103.656 198.875 103 200.75 103H214.925C216.2 103 217.269 103.431 218.131 104.294C218.994 105.156 219.425 106.225 219.425 107.5C219.425 108.775 218.994 109.844 218.131 110.706C217.269 111.569 216.2 112 214.925 112H209.3L219.425 122.125C220.25 122.95 220.662 123.981 220.662 125.219C220.662 126.456 220.25 127.525 219.425 128.425C218.525 129.325 217.456 129.775 216.219 129.775C214.981 129.775 213.912 129.325 213.012 128.425L203 118.412ZM176 130C169.775 130 163.925 128.819 158.45 126.456C152.975 124.094 148.212 120.887 144.162 116.838C140.113 112.787 136.906 108.025 134.544 102.55C132.181 97.075 131 91.225 131 85C131 78.775 132.181 72.925 134.544 67.45C136.906 61.975 140.113 57.2125 144.162 53.1625C148.212 49.1125 152.975 45.9062 158.45 43.5437C163.925 41.1812 169.775 40 176 40C182.225 40 188.075 41.1812 193.55 43.5437C199.025 45.9062 203.787 49.1125 207.838 53.1625C211.887 57.2125 215.094 61.975 217.456 67.45C219.819 72.925 221 78.775 221 85C221 85.75 220.981 86.575 220.944 87.475C220.906 88.375 220.85 89.2 220.775 89.95C220.625 91.225 220.1 92.2188 219.2 92.9312C218.3 93.6437 217.175 94 215.825 94C214.625 94 213.612 93.475 212.787 92.425C211.963 91.375 211.625 90.25 211.775 89.05C211.925 88.3 212 87.625 212 87.025V85C212 83.5 211.906 82 211.719 80.5C211.531 79 211.25 77.5 210.875 76H195.575C195.8 77.5 195.969 79 196.081 80.5C196.194 82 196.25 83.5 196.25 85V87.4187C196.25 88.2812 196.213 89.0875 196.137 89.8375C195.987 91.1125 195.463 92.125 194.562 92.875C193.662 93.625 192.575 94 191.3 94C190.1 94 189.069 93.5125 188.206 92.5375C187.344 91.5625 186.987 90.475 187.137 89.275C187.212 88.525 187.25 87.8125 187.25 87.1375V85C187.25 83.5 187.194 82 187.081 80.5C186.969 79 186.8 77.5 186.575 76H165.425C165.2 77.5 165.031 79 164.919 80.5C164.806 82 164.75 83.5 164.75 85C164.75 86.5 164.806 88 164.919 89.5C165.031 91 165.2 92.5 165.425 94H176C177.275 94 178.344 94.4312 179.206 95.2937C180.069 96.1562 180.5 97.225 180.5 98.5C180.5 99.775 180.069 100.844 179.206 101.706C178.344 102.569 177.275 103 176 103H167.45C168.35 106.225 169.513 109.319 170.938 112.281C172.362 115.244 174.05 118.075 176 120.775C176.75 120.775 177.5 120.794 178.25 120.831C179 120.869 179.75 120.85 180.5 120.775C181.775 120.625 182.825 120.944 183.65 121.731C184.475 122.519 184.887 123.55 184.887 124.825C184.887 126.175 184.55 127.3 183.875 128.2C183.2 129.1 182.225 129.625 180.95 129.775C180.2 129.85 179.375 129.906 178.475 129.944C177.575 129.981 176.75 130 176 130ZM141.125 94H156.425C156.2 92.5 156.031 91 155.919 89.5C155.806 88 155.75 86.5 155.75 85C155.75 83.5 155.806 82 155.919 80.5C156.031 79 156.2 77.5 156.425 76H141.125C140.75 77.5 140.469 79 140.281 80.5C140.094 82 140 83.5 140 85C140 86.5 140.094 88 140.281 89.5C140.469 91 140.75 92.5 141.125 94ZM164.3 118.975C162.95 116.425 161.769 113.819 160.756 111.156C159.744 108.494 158.9 105.775 158.225 103H144.95C147.125 106.825 149.862 110.106 153.162 112.844C156.462 115.581 160.175 117.625 164.3 118.975ZM144.95 67H158.225C158.9 64.225 159.744 61.5062 160.756 58.8438C161.769 56.1812 162.95 53.575 164.3 51.025C160.175 52.375 156.462 54.4187 153.162 57.1562C149.862 59.8937 147.125 63.175 144.95 67ZM167.45 67H184.55C183.65 63.775 182.487 60.6812 181.062 57.7188C179.637 54.7562 177.95 51.925 176 49.225C174.05 51.925 172.362 54.7562 170.938 57.7188C169.513 60.6812 168.35 63.775 167.45 67ZM193.775 67H207.05C204.875 63.175 202.137 59.8937 198.838 57.1562C195.537 54.4187 191.825 52.375 187.7 51.025C189.05 53.575 190.231 56.1812 191.244 58.8438C192.256 61.5062 193.1 64.225 193.775 67Z" fill="#00A652"/>
<rect y="145" width="366" height="64" rx="9" fill="white"/>
<path d="M19.3754 186L14.5004 168.5L18.4004 168.475L21.6254 181.275L25.0504 168.5H28.4254L31.7504 181.275L35.0504 168.5H38.8504L33.9754 186H29.6754L26.6254 174.375L23.6754 186H19.3754ZM45.3396 186.15C41.0646 186.15 38.4896 183.575 38.4896 179.6C38.4896 175.6 41.1146 173 45.0896 173C48.9396 173 51.5396 175.4 51.5896 179.175C51.5896 179.55 51.5646 179.975 51.4896 180.375H42.1646V180.55C42.2396 182.375 43.4146 183.475 45.1896 183.475C46.6146 183.475 47.6146 182.85 47.9146 181.65H51.3896C50.9896 184.15 48.7646 186.15 45.3396 186.15ZM42.2396 178.075H48.0396C47.7896 176.5 46.7146 175.625 45.1146 175.625C43.5896 175.625 42.4396 176.55 42.2396 178.075ZM60.916 173C64.366 173 66.866 175.475 66.866 179.55C66.866 183.525 64.366 186.15 60.891 186.15C59.041 186.15 57.766 185.35 56.941 184.25L56.591 186H53.516V168.5H57.041V174.775C57.891 173.75 59.141 173 60.916 173ZM60.116 183.275C62.041 183.275 63.291 181.775 63.291 179.575C63.291 177.375 62.041 175.875 60.116 175.875C58.191 175.875 56.991 177.375 56.991 179.55C56.991 181.75 58.191 183.275 60.116 183.275ZM84.3498 174.75V168.5H87.8748V186H84.7998L84.4498 184.225C83.5998 185.325 82.3498 186.15 80.4998 186.15C77.0498 186.15 74.5248 183.625 74.5248 179.55C74.5248 175.575 77.0498 173 80.4748 173C82.2498 173 83.5248 173.7 84.3498 174.75ZM81.2748 183.275C83.1998 183.275 84.3998 181.775 84.3998 179.6C84.3998 177.4 83.1998 175.875 81.2748 175.875C79.3498 175.875 78.1248 177.375 78.1248 179.575C78.1248 181.775 79.3498 183.275 81.2748 183.275ZM96.6824 186.15C92.4074 186.15 89.8324 183.575 89.8324 179.6C89.8324 175.6 92.4574 173 96.4324 173C100.282 173 102.882 175.4 102.932 179.175C102.932 179.55 102.907 179.975 102.832 180.375H93.5074V180.55C93.5824 182.375 94.7574 183.475 96.5324 183.475C97.9574 183.475 98.9574 182.85 99.2574 181.65H102.732C102.332 184.15 100.107 186.15 96.6824 186.15ZM93.5824 178.075H99.3824C99.1324 176.5 98.0574 175.625 96.4574 175.625C94.9324 175.625 93.7824 176.55 93.5824 178.075ZM104.161 181.725H107.511C107.636 182.85 108.611 183.625 110.336 183.625C111.811 183.625 112.711 183.15 112.711 182.25C112.711 181.2 111.836 181.125 109.761 180.85C106.761 180.5 104.436 179.825 104.436 177.175C104.436 174.625 106.661 172.95 109.961 172.975C113.411 172.975 115.786 174.5 115.961 177.125H112.586C112.486 176.1 111.511 175.475 110.086 175.475C108.711 175.475 107.811 175.975 107.811 176.8C107.811 177.775 108.911 177.875 110.761 178.1C113.711 178.4 116.161 179.075 116.161 181.975C116.161 184.525 113.761 186.15 110.311 186.15C106.736 186.15 104.311 184.475 104.161 181.725ZM119.793 171.775C118.643 171.775 117.743 170.925 117.743 169.8C117.743 168.65 118.643 167.8 119.793 167.8C120.943 167.8 121.843 168.65 121.843 169.8C121.843 170.925 120.943 171.775 119.793 171.775ZM118.018 186V173.15H121.568V186H118.018ZM133.449 174.925L133.749 173.15H136.849V185.625C136.849 188.8 134.899 191.15 129.974 191.15C126.399 191.15 123.949 189.525 123.774 186.55H127.324C127.649 187.775 128.624 188.475 130.249 188.475C132.224 188.475 133.399 187.5 133.399 185.5V184.15C132.549 185.225 131.274 185.925 129.474 185.925C126.024 185.95 123.499 183.425 123.499 179.45C123.499 175.525 126.024 172.975 129.449 172.975C131.299 172.975 132.599 173.8 133.449 174.925ZM130.249 183.1C132.174 183.1 133.374 181.625 133.374 179.5C133.374 177.35 132.174 175.825 130.249 175.825C128.324 175.825 127.099 177.325 127.099 179.475C127.099 181.625 128.324 183.1 130.249 183.1ZM146.682 173C149.457 173 151.832 174.475 151.832 178.875V186H148.307V179.225C148.307 177.05 147.482 175.9 145.707 175.9C143.882 175.9 142.832 177.2 142.832 179.425V186H139.307V173.15H142.382L142.707 174.75C143.532 173.75 144.707 173 146.682 173ZM173.854 182L174.404 182.575C174.829 183.025 175.154 183.075 175.679 183.075H177.454V186H175.129C173.829 186 172.654 185.725 171.704 184.725L171.404 184.425C169.979 185.6 168.529 186.15 166.729 186.15C163.229 186.15 160.454 184.6 160.479 181.4C160.504 179.75 161.329 177.875 164.129 176.6C162.979 175.175 162.754 174.3 162.754 172.85C162.754 170.275 165.029 168.35 168.229 168.35C170.954 168.35 173.129 170.075 173.129 172.475C173.129 174.175 172.329 175.7 169.154 177.025L169.204 177.075L172.004 180.025L174.254 176.55H177.504L173.854 182ZM168.104 170.825C166.979 170.825 166.204 171.65 166.204 172.75C166.204 173.75 166.579 174.325 167.429 175.25C169.154 174.5 169.804 173.625 169.804 172.55C169.804 171.525 169.104 170.825 168.104 170.825ZM166.954 183.425C167.979 183.425 168.804 183.1 169.629 182.525L165.704 178.35C164.504 179.075 164.129 179.975 164.129 181.025C164.129 182.575 165.229 183.425 166.954 183.425ZM186.823 186V168.5H191.748L196.598 181.35L201.298 168.5H206.123V186H202.548V174.275L197.998 186H194.948L190.398 174.275V186H186.823ZM221.088 183.025H221.488V186H219.688C217.863 186 217.288 185.125 217.313 183.9C216.413 185.325 215.113 186.15 213.113 186.15C210.338 186.15 208.338 184.825 208.338 182.375C208.338 179.65 210.388 178.1 214.238 178.1H216.788V177.475C216.788 176.325 215.963 175.575 214.488 175.575C213.113 175.575 212.188 176.2 212.038 177.15H208.638C208.888 174.65 211.188 173 214.588 173C218.188 173 220.263 174.6 220.263 177.675V182.225C220.263 182.9 220.538 183.025 221.088 183.025ZM216.788 180.7V180.45H214.213C212.738 180.45 211.888 181.05 211.888 182.125C211.888 183.025 212.613 183.6 213.788 183.6C215.638 183.6 216.763 182.45 216.788 180.7ZM224.627 171.775C223.477 171.775 222.577 170.925 222.577 169.8C222.577 168.65 223.477 167.8 224.627 167.8C225.777 167.8 226.677 168.65 226.677 169.8C226.677 170.925 225.777 171.775 224.627 171.775ZM222.852 186V173.15H226.402V186H222.852ZM236.208 173C238.983 173 241.358 174.475 241.358 178.875V186H237.833V179.225C237.833 177.05 237.008 175.9 235.233 175.9C233.408 175.9 232.358 177.2 232.358 179.425V186H228.833V173.15H231.908L232.233 174.75C233.058 173.75 234.233 173 236.208 173ZM244.504 182.325V176.125H242.379V173.15H244.504V169.55H248.029V173.15H250.979V176.125H248.029V181.75C248.029 182.65 248.379 183.025 249.304 183.025H251.054V186H248.179C245.729 186 244.504 184.775 244.504 182.325ZM264.863 183.025H265.263V186H263.463C261.638 186 261.063 185.125 261.088 183.9C260.188 185.325 258.888 186.15 256.888 186.15C254.113 186.15 252.113 184.825 252.113 182.375C252.113 179.65 254.163 178.1 258.013 178.1H260.563V177.475C260.563 176.325 259.738 175.575 258.263 175.575C256.888 175.575 255.963 176.2 255.813 177.15H252.413C252.663 174.65 254.963 173 258.363 173C261.963 173 264.038 174.6 264.038 177.675V182.225C264.038 182.9 264.313 183.025 264.863 183.025ZM260.563 180.7V180.45H257.988C256.513 180.45 255.663 181.05 255.663 182.125C255.663 183.025 256.388 183.6 257.563 183.6C259.413 183.6 260.538 182.45 260.563 180.7ZM268.401 171.775C267.251 171.775 266.351 170.925 266.351 169.8C266.351 168.65 267.251 167.8 268.401 167.8C269.551 167.8 270.451 168.65 270.451 169.8C270.451 170.925 269.551 171.775 268.401 171.775ZM266.626 186V173.15H270.176V186H266.626ZM279.983 173C282.758 173 285.133 174.475 285.133 178.875V186H281.608V179.225C281.608 177.05 280.783 175.9 279.008 175.9C277.183 175.9 276.133 177.2 276.133 179.425V186H272.608V173.15H275.683L276.008 174.75C276.833 173.75 278.008 173 279.983 173ZM299.604 183.025H300.004V186H298.204C296.379 186 295.804 185.125 295.829 183.9C294.929 185.325 293.629 186.15 291.629 186.15C288.854 186.15 286.854 184.825 286.854 182.375C286.854 179.65 288.904 178.1 292.754 178.1H295.304V177.475C295.304 176.325 294.479 175.575 293.004 175.575C291.629 175.575 290.704 176.2 290.554 177.15H287.154C287.404 174.65 289.704 173 293.104 173C296.704 173 298.779 174.6 298.779 177.675V182.225C298.779 182.9 299.054 183.025 299.604 183.025ZM295.304 180.7V180.45H292.729C291.254 180.45 290.404 181.05 290.404 182.125C290.404 183.025 291.129 183.6 292.304 183.6C294.154 183.6 295.279 182.45 295.304 180.7ZM308.743 173C311.518 173 313.893 174.475 313.893 178.875V186H310.368V179.225C310.368 177.05 309.543 175.9 307.768 175.9C305.943 175.9 304.893 177.2 304.893 179.425V186H301.368V173.15H304.443L304.768 174.75C305.593 173.75 306.768 173 308.743 173ZM322.115 186.15C318.04 186.15 315.565 183.625 315.565 179.575C315.565 175.6 318.165 173 322.24 173C325.74 173 327.915 174.9 328.415 177.95H324.74C324.44 176.675 323.565 175.875 322.19 175.875C320.34 175.875 319.165 177.4 319.165 179.575C319.165 181.775 320.34 183.275 322.19 183.275C323.565 183.275 324.49 182.45 324.74 181.15H328.44C327.94 184.225 325.615 186.15 322.115 186.15ZM336.648 186.15C332.373 186.15 329.798 183.575 329.798 179.6C329.798 175.6 332.423 173 336.398 173C340.248 173 342.848 175.4 342.898 179.175C342.898 179.55 342.873 179.975 342.798 180.375H333.473V180.55C333.548 182.375 334.723 183.475 336.498 183.475C337.923 183.475 338.923 182.85 339.223 181.65H342.698C342.298 184.15 340.073 186.15 336.648 186.15ZM333.548 178.075H339.348C339.098 176.5 338.023 175.625 336.423 175.625C334.898 175.625 333.748 176.55 333.548 178.075Z" fill="#141414"/>
</svg>
