<svg width="287" height="207" viewBox="0 0 287 207" fill="none" xmlns="http://www.w3.org/2000/svg">
<rect width="165.106" height="160" rx="28" fill="#00A652"/>
<path d="M98.4166 110.833V101.583H67.5833C65.8875 101.583 64.4357 100.979 63.2281 99.7718C62.0205 98.5642 61.4166 97.1124 61.4166 95.4166V64.5833H52.1666C51.293 64.5833 50.5607 64.2878 49.9698 63.6968C49.3788 63.1058 49.0833 62.3735 49.0833 61.4999C49.0833 60.6263 49.3788 59.894 49.9698 59.303C50.5607 58.7121 51.293 58.4166 52.1666 58.4166H61.4166V49.1666C61.4166 48.293 61.7121 47.5607 62.3031 46.9697C62.8941 46.3787 63.6264 46.0833 64.5 46.0833C65.3736 46.0833 66.1059 46.3787 66.6969 46.9697C67.2878 47.5607 67.5833 48.293 67.5833 49.1666V95.4166H113.833C114.707 95.4166 115.439 95.7121 116.03 96.303C116.621 96.894 116.917 97.6263 116.917 98.4999C116.917 99.3735 116.621 100.106 116.03 100.697C115.439 101.288 114.707 101.583 113.833 101.583H104.583V110.833C104.583 111.707 104.288 112.439 103.697 113.03C103.106 113.621 102.374 113.917 101.5 113.917C100.626 113.917 99.8941 113.621 99.3031 113.03C98.7121 112.439 98.4166 111.707 98.4166 110.833ZM98.4166 89.2499V64.5833H73.75V58.4166H98.4166C100.112 58.4166 101.564 59.0204 102.772 60.228C103.979 61.4357 104.583 62.8874 104.583 64.5833V89.2499H98.4166Z" fill="white"/>
<rect x="78" y="143" width="209" height="64" rx="9" fill="white"/>
<path d="M96.3369 184.15C91.3369 184.15 88.0119 180.625 88.0119 175.25C88.0119 169.875 91.3119 166.35 96.6869 166.35C100.912 166.35 103.887 168.95 104.337 172.725H100.587C100.137 170.8 98.7369 169.525 96.5869 169.525C93.6619 169.525 91.8369 171.875 91.8369 175.25C91.8369 178.625 93.5869 180.975 96.5869 180.975C98.5869 180.975 100.612 179.925 100.962 177.475V177.25H96.6119V174.275H104.437V184H101.812L101.437 181.9C100.512 183.125 98.8119 184.15 96.3369 184.15ZM114.388 171.15H114.988V174.35H113.588C111.488 174.35 110.688 175.75 110.688 177.7V184H107.163V171.15H110.363L110.688 173.075C111.388 171.925 112.388 171.15 114.388 171.15ZM128.495 181.025H128.895V184H127.095C125.27 184 124.695 183.125 124.72 181.9C123.82 183.325 122.52 184.15 120.52 184.15C117.745 184.15 115.745 182.825 115.745 180.375C115.745 177.65 117.795 176.1 121.645 176.1H124.195V175.475C124.195 174.325 123.37 173.575 121.895 173.575C120.52 173.575 119.595 174.2 119.445 175.15H116.045C116.295 172.65 118.595 171 121.995 171C125.595 171 127.67 172.6 127.67 175.675V180.225C127.67 180.9 127.945 181.025 128.495 181.025ZM124.195 178.7V178.45H121.62C120.145 178.45 119.295 179.05 119.295 180.125C119.295 181.025 120.02 181.6 121.195 181.6C123.045 181.6 124.17 180.45 124.195 178.7ZM137.633 171C141.108 170.975 143.608 173.55 143.608 177.6C143.608 181.6 141.108 184.15 137.658 184.15C135.883 184.15 134.608 183.425 133.783 182.375V189H130.258V171.15H133.333L133.683 172.925C134.508 171.825 135.808 171 137.633 171ZM136.858 181.275C138.783 181.275 140.033 179.75 140.033 177.55C140.033 175.375 138.783 173.875 136.858 173.875C134.933 173.875 133.733 175.375 133.733 177.55C133.733 179.75 134.933 181.275 136.858 181.275ZM152.891 171C155.741 171 158.091 172.525 158.091 176.875V184H154.566V177.175C154.566 175.075 153.716 173.9 151.966 173.9C150.166 173.9 149.091 175.2 149.091 177.4V184H145.566V166.5H149.091V172.725C149.916 171.725 151.066 171 152.891 171ZM162.087 169.775C160.937 169.775 160.037 168.925 160.037 167.8C160.037 166.65 160.937 165.8 162.087 165.8C163.237 165.8 164.137 166.65 164.137 167.8C164.137 168.925 163.237 169.775 162.087 169.775ZM160.312 184V171.15H163.862V184H160.312ZM172.343 184.15C168.268 184.15 165.793 181.625 165.793 177.575C165.793 173.6 168.393 171 172.468 171C175.968 171 178.143 172.9 178.643 175.95H174.968C174.668 174.675 173.793 173.875 172.418 173.875C170.568 173.875 169.393 175.4 169.393 177.575C169.393 179.775 170.568 181.275 172.418 181.275C173.793 181.275 174.718 180.45 174.968 179.15H178.668C178.168 182.225 175.843 184.15 172.343 184.15ZM179.927 179.725H183.277C183.402 180.85 184.377 181.625 186.102 181.625C187.577 181.625 188.477 181.15 188.477 180.25C188.477 179.2 187.602 179.125 185.527 178.85C182.527 178.5 180.202 177.825 180.202 175.175C180.202 172.625 182.427 170.95 185.727 170.975C189.177 170.975 191.552 172.5 191.727 175.125H188.352C188.252 174.1 187.277 173.475 185.852 173.475C184.477 173.475 183.577 173.975 183.577 174.8C183.577 175.775 184.677 175.875 186.527 176.1C189.477 176.4 191.927 177.075 191.927 179.975C191.927 182.525 189.527 184.15 186.077 184.15C182.502 184.15 180.077 182.475 179.927 179.725ZM209.31 172.75V166.5H212.835V184H209.76L209.41 182.225C208.56 183.325 207.31 184.15 205.46 184.15C202.01 184.15 199.485 181.625 199.485 177.55C199.485 173.575 202.01 171 205.435 171C207.21 171 208.485 171.7 209.31 172.75ZM206.235 181.275C208.16 181.275 209.36 179.775 209.36 177.6C209.36 175.4 208.16 173.875 206.235 173.875C204.31 173.875 203.085 175.375 203.085 177.575C203.085 179.775 204.31 181.275 206.235 181.275ZM221.642 184.15C217.367 184.15 214.792 181.575 214.792 177.6C214.792 173.6 217.417 171 221.392 171C225.242 171 227.842 173.4 227.892 177.175C227.892 177.55 227.867 177.975 227.792 178.375H218.467V178.55C218.542 180.375 219.717 181.475 221.492 181.475C222.917 181.475 223.917 180.85 224.217 179.65H227.692C227.292 182.15 225.067 184.15 221.642 184.15ZM218.542 176.075H224.342C224.092 174.5 223.017 173.625 221.417 173.625C219.892 173.625 218.742 174.55 218.542 176.075ZM229.121 179.725H232.471C232.596 180.85 233.571 181.625 235.296 181.625C236.771 181.625 237.671 181.15 237.671 180.25C237.671 179.2 236.796 179.125 234.721 178.85C231.721 178.5 229.396 177.825 229.396 175.175C229.396 172.625 231.621 170.95 234.921 170.975C238.371 170.975 240.746 172.5 240.921 175.125H237.546C237.446 174.1 236.471 173.475 235.046 173.475C233.671 173.475 232.771 173.975 232.771 174.8C232.771 175.775 233.871 175.875 235.721 176.1C238.671 176.4 241.121 177.075 241.121 179.975C241.121 182.525 238.721 184.15 235.271 184.15C231.696 184.15 229.271 182.475 229.121 179.725ZM244.753 169.775C243.603 169.775 242.703 168.925 242.703 167.8C242.703 166.65 243.603 165.8 244.753 165.8C245.903 165.8 246.803 166.65 246.803 167.8C246.803 168.925 245.903 169.775 244.753 169.775ZM242.978 184V171.15H246.528V184H242.978ZM258.409 172.925L258.709 171.15H261.809V183.625C261.809 186.8 259.859 189.15 254.934 189.15C251.359 189.15 248.909 187.525 248.734 184.55H252.284C252.609 185.775 253.584 186.475 255.209 186.475C257.184 186.475 258.359 185.5 258.359 183.5V182.15C257.509 183.225 256.234 183.925 254.434 183.925C250.984 183.95 248.459 181.425 248.459 177.45C248.459 173.525 250.984 170.975 254.409 170.975C256.259 170.975 257.559 171.8 258.409 172.925ZM255.209 181.1C257.134 181.1 258.334 179.625 258.334 177.5C258.334 175.35 257.134 173.825 255.209 173.825C253.284 173.825 252.059 175.325 252.059 177.475C252.059 179.625 253.284 181.1 255.209 181.1ZM271.642 171C274.417 171 276.792 172.475 276.792 176.875V184H273.267V177.225C273.267 175.05 272.442 173.9 270.667 173.9C268.842 173.9 267.792 175.2 267.792 177.425V184H264.267V171.15H267.342L267.667 172.75C268.492 171.75 269.667 171 271.642 171Z" fill="#141414"/>
</svg>
