<svg width="268" height="192" viewBox="0 0 268 192" fill="none" xmlns="http://www.w3.org/2000/svg">
<path d="M111 30C111 13.4315 124.431 0 141 0H205.264C215.432 0 224.908 5.15051 230.438 13.6831L257.807 55.9092C263.913 65.3307 264.248 77.3733 258.674 87.1194L230.209 136.893C224.866 146.235 214.929 152 204.167 152H141C124.431 152 111 138.569 111 122V30Z" fill="#FF6D38"/>
<path d="M154.333 51.3333L160.5 63.6666H169.75L163.583 51.3333H169.75L175.917 63.6666H185.167L179 51.3333H185.167L191.333 63.6666H200.583L194.417 51.3333H203.667C205.363 51.3333 206.814 51.9371 208.022 53.1447C209.23 54.3523 209.833 55.8041 209.833 57.4999V94.4999C209.833 96.1958 209.23 97.6475 208.022 98.8551C206.814 100.063 205.363 100.667 203.667 100.667H154.333C152.638 100.667 151.186 100.063 149.978 98.8551C148.771 97.6475 148.167 96.1958 148.167 94.4999V57.4999C148.167 55.8041 148.771 54.3523 149.978 53.1447C151.186 51.9371 152.638 51.3333 154.333 51.3333ZM154.333 69.8333V94.4999H203.667V69.8333H154.333Z" fill="white"/>
<rect y="128" width="209" height="64" rx="9" fill="white"/>
<path d="M33.2894 169L27.3394 151.5H31.3144L35.5144 164.45L39.8144 151.5H43.6894L37.7644 169H33.2894ZM46.6968 154.775C45.5468 154.775 44.6468 153.925 44.6468 152.8C44.6468 151.65 45.5468 150.8 46.6968 150.8C47.8468 150.8 48.7468 151.65 48.7468 152.8C48.7468 153.925 47.8468 154.775 46.6968 154.775ZM44.9218 169V156.15H48.4718V169H44.9218ZM60.2282 157.75V151.5H63.7532V169H60.6782L60.3282 167.225C59.4782 168.325 58.2282 169.15 56.3782 169.15C52.9282 169.15 50.4032 166.625 50.4032 162.55C50.4032 158.575 52.9282 156 56.3532 156C58.1282 156 59.4032 156.7 60.2282 157.75ZM57.1532 166.275C59.0782 166.275 60.2782 164.775 60.2782 162.6C60.2782 160.4 59.0782 158.875 57.1532 158.875C55.2282 158.875 54.0032 160.375 54.0032 162.575C54.0032 164.775 55.2282 166.275 57.1532 166.275ZM72.5608 169.15C68.2858 169.15 65.7108 166.575 65.7108 162.6C65.7108 158.6 68.3358 156 72.3108 156C76.1608 156 78.7608 158.4 78.8108 162.175C78.8108 162.55 78.7858 162.975 78.7108 163.375H69.3858V163.55C69.4608 165.375 70.6358 166.475 72.4108 166.475C73.8358 166.475 74.8358 165.85 75.1358 164.65H78.6108C78.2108 167.15 75.9858 169.15 72.5608 169.15ZM69.4608 161.075H75.2608C75.0108 159.5 73.9358 158.625 72.3358 158.625C70.8108 158.625 69.6608 159.55 69.4608 161.075ZM87.0122 169.15C82.9122 169.15 80.2372 166.525 80.2372 162.575C80.2372 158.625 82.9122 156 87.0122 156C91.1122 156 93.7872 158.625 93.7872 162.575C93.7872 166.55 91.1122 169.15 87.0122 169.15ZM87.0122 166.275C88.9872 166.275 90.2122 164.75 90.2122 162.575C90.2122 160.4 88.9872 158.875 87.0122 158.875C85.0372 158.875 83.8372 160.4 83.8372 162.575C83.8372 164.75 85.0372 166.275 87.0122 166.275ZM108.279 169.15C104.004 169.15 101.429 166.575 101.429 162.6C101.429 158.6 104.054 156 108.029 156C111.879 156 114.479 158.4 114.529 162.175C114.529 162.55 114.504 162.975 114.429 163.375H105.104V163.55C105.179 165.375 106.354 166.475 108.129 166.475C109.554 166.475 110.554 165.85 110.854 164.65H114.329C113.929 167.15 111.704 169.15 108.279 169.15ZM105.179 161.075H110.979C110.729 159.5 109.654 158.625 108.054 158.625C106.529 158.625 105.379 159.55 105.179 161.075ZM125.78 157.75V151.5H129.305V169H126.23L125.88 167.225C125.03 168.325 123.78 169.15 121.93 169.15C118.48 169.15 115.955 166.625 115.955 162.55C115.955 158.575 118.48 156 121.905 156C123.68 156 124.955 156.7 125.78 157.75ZM122.705 166.275C124.63 166.275 125.83 164.775 125.83 162.6C125.83 160.4 124.63 158.875 122.705 158.875C120.78 158.875 119.555 160.375 119.555 162.575C119.555 164.775 120.78 166.275 122.705 166.275ZM133.538 154.775C132.388 154.775 131.488 153.925 131.488 152.8C131.488 151.65 132.388 150.8 133.538 150.8C134.688 150.8 135.588 151.65 135.588 152.8C135.588 153.925 134.688 154.775 133.538 154.775ZM131.763 169V156.15H135.313V169H131.763ZM138.669 165.325V159.125H136.544V156.15H138.669V152.55H142.194V156.15H145.144V159.125H142.194V164.75C142.194 165.65 142.544 166.025 143.469 166.025H145.219V169H142.344C139.894 169 138.669 167.775 138.669 165.325ZM148.625 154.775C147.475 154.775 146.575 153.925 146.575 152.8C146.575 151.65 147.475 150.8 148.625 150.8C149.775 150.8 150.675 151.65 150.675 152.8C150.675 153.925 149.775 154.775 148.625 154.775ZM146.85 169V156.15H150.4V169H146.85ZM160.207 156C162.982 156 165.357 157.475 165.357 161.875V169H161.832V162.225C161.832 160.05 161.007 158.9 159.232 158.9C157.407 158.9 156.357 160.2 156.357 162.425V169H152.832V156.15H155.907L156.232 157.75C157.057 156.75 158.232 156 160.207 156ZM177.028 157.925L177.328 156.15H180.428V168.625C180.428 171.8 178.478 174.15 173.553 174.15C169.978 174.15 167.528 172.525 167.353 169.55H170.903C171.228 170.775 172.203 171.475 173.828 171.475C175.803 171.475 176.978 170.5 176.978 168.5V167.15C176.128 168.225 174.853 168.925 173.053 168.925C169.603 168.95 167.078 166.425 167.078 162.45C167.078 158.525 169.603 155.975 173.028 155.975C174.878 155.975 176.178 156.8 177.028 157.925ZM173.828 166.1C175.753 166.1 176.953 164.625 176.953 162.5C176.953 160.35 175.753 158.825 173.828 158.825C171.903 158.825 170.678 160.325 170.678 162.475C170.678 164.625 171.903 166.1 173.828 166.1Z" fill="#141414"/>
</svg>
