<svg width="41" height="41" viewBox="0 0 41 41" fill="none" xmlns="http://www.w3.org/2000/svg">
<rect width="41" height="41" rx="9" fill="#1A73E9"/>
<path fill-rule="evenodd" clip-rule="evenodd" d="M26.5485 9.89661C28.8089 9.89661 30.6948 11.5 31.1309 13.6314C31.1933 13.9359 31.226 14.2512 31.226 14.5741V26.5485C31.226 29.1318 29.1318 31.226 26.5485 31.226H14.5741C14.0626 31.226 13.5704 31.144 13.1097 30.9923C11.2436 30.3777 9.89655 28.6204 9.89655 26.5485V14.5741C9.89655 11.9908 11.9907 9.89661 14.5741 9.89661H26.5485ZM24.6513 11.3934H26.5485C28.0986 11.3934 29.3898 12.5023 29.6719 13.9702C28.7717 14.0722 27.7427 13.9777 26.6561 13.512C25.6932 13.0993 25.0544 12.3347 24.6513 11.3934ZM20.2101 11.3934H23.0531C23.5254 12.8153 24.4303 14.1865 26.0665 14.8878C27.379 15.4503 28.6255 15.5807 29.7292 15.4711V17.0006C28.2306 17.4749 26.7374 17.6669 25.5425 17.3172C24.949 17.1435 24.2681 16.6823 23.5353 15.9568C22.8125 15.2413 22.0912 14.3209 21.4101 13.3149C20.9869 12.6898 20.5839 12.0385 20.2101 11.3934ZM18.4911 11.3934H16.5104C16.6007 13.0872 16.2016 15.156 14.717 17.2519C13.7335 18.6404 12.5704 19.4042 11.3933 19.7453V22.7292C12.1026 22.2985 12.9375 21.7103 13.9151 20.916C16.2248 19.0394 18.044 18.2927 19.4234 18.1561C20.795 18.0203 21.7699 18.496 22.1994 19.0973C22.6502 19.7285 22.9051 20.5744 23.001 21.4666C23.0981 22.3695 23.0389 23.3766 22.8112 24.3761C22.3585 26.3631 21.2092 28.4314 19.1387 29.5463C19.0259 29.607 18.9121 29.668 18.7975 29.7292H21.124C22.034 28.5741 22.7621 27.4264 23.0232 26.527C23.318 25.5117 23.439 24.4353 23.5521 23.429L23.5521 23.4288L23.5522 23.4285C23.5928 23.0671 23.6324 22.7146 23.6787 22.3773C23.7589 21.7928 23.8696 21.1735 24.1075 20.7269C24.2334 20.4906 24.4334 20.2275 24.7553 20.0756C25.0942 19.9157 25.4468 19.9353 25.756 20.0384C26.623 20.3274 27.7756 20.3873 29.7292 19.898V18.5628C28.2227 18.9873 26.58 19.1805 25.1221 18.7537C24.1813 18.4784 23.2883 17.8185 22.4822 17.0205C21.6661 16.2126 20.8835 15.207 20.1707 14.1541C19.561 13.2535 18.9934 12.3049 18.4911 11.3934ZM29.7292 21.4374C27.868 21.8634 26.5297 21.8456 25.3978 21.4954C25.3142 21.6912 25.236 22.0386 25.1616 22.5809C25.1246 22.8502 25.0903 23.1565 25.0532 23.4877L25.0532 23.4879C24.9375 24.52 24.7947 25.7936 24.4606 26.9443C24.2046 27.8263 23.6508 28.7952 22.9925 29.7292H24.4984C24.7762 29.0385 25.032 28.3807 25.2329 27.8277C25.4488 27.2336 25.584 26.8063 25.6275 26.5888C25.7101 26.1758 25.8675 25.7315 26.2365 25.4165C26.6204 25.0888 27.0919 25.0185 27.5337 25.0409C27.9687 25.0631 28.4787 25.1802 29.0541 25.3452C29.2633 25.4052 29.4882 25.4737 29.7292 25.5498V21.4374ZM29.6805 27.1059C29.2898 26.9791 28.946 26.8714 28.6414 26.784C28.0855 26.6246 27.7126 26.5488 27.4577 26.5358C27.2931 26.5274 27.2264 26.5477 27.2073 26.5562C27.1966 26.5689 27.1434 26.6414 27.0953 26.8823C27.0265 27.2262 26.8522 27.7539 26.6397 28.3388C26.4872 28.7588 26.3059 29.2322 26.1097 29.7292H26.5485C28.115 29.7292 29.417 28.5968 29.6805 27.1059ZM15.5679 29.7292C16.5481 29.2237 17.5375 28.7085 18.429 28.2284C20.007 27.3787 20.9626 25.7518 21.3518 24.0436C21.545 23.1954 21.5911 22.3549 21.5128 21.6266C21.4333 20.8875 21.2321 20.3184 20.9814 19.9673C20.9431 19.9138 20.5615 19.5475 19.5709 19.6456C18.5882 19.7429 17.0396 20.3059 14.8589 22.0777C13.4939 23.1868 12.3515 23.9468 11.3933 24.4491V26.1372C11.6295 25.921 11.8963 25.7405 12.1427 25.5864C12.3939 25.4295 12.6675 25.2751 12.9364 25.1243L13.003 25.087C13.2542 24.9462 13.5035 24.8065 13.7511 24.6582C14.2926 24.3338 14.7796 23.995 15.1541 23.6008C15.8024 22.9183 16.7381 22.1037 17.6178 21.5476C18.0518 21.2733 18.5205 21.0307 18.9628 20.9192C19.3778 20.8147 20.0213 20.7721 20.4697 21.2848C20.8964 21.7726 21.0733 22.5042 20.7625 23.4538C20.4672 24.3556 19.7258 25.4945 18.2926 26.9754C16.8049 28.5127 15.3172 29.2828 14.0629 29.5282C13.9214 29.5559 13.7822 29.577 13.6459 29.5917C13.9395 29.6811 14.2512 29.7292 14.5741 29.7292H15.5679ZM11.3933 18.1615C12.1185 17.8608 12.841 17.3108 13.4956 16.3867C14.7881 14.562 15.1005 12.7926 15.0115 11.3934H14.5741C12.8174 11.3934 11.3933 12.8175 11.3933 14.5741V18.1615ZM27.2059 26.5569C27.2023 26.5586 27.2009 26.5597 27.2011 26.5598C27.2012 26.5599 27.202 26.5596 27.2033 26.5587L27.2042 26.5581L27.2059 26.5569ZM18.4176 22.8129C17.6638 23.2893 16.822 24.0182 16.2393 24.6317C15.7251 25.173 15.1012 25.5943 14.5202 25.9423C14.2532 26.1022 13.9854 26.2523 13.7372 26.3913L13.6685 26.4299C13.3965 26.5824 13.1527 26.7203 12.936 26.8557C12.4688 27.1477 12.2735 27.344 12.2123 27.4697C12.1948 27.5057 12.1927 27.5264 12.1981 27.5578C12.2058 27.6026 12.238 27.706 12.3662 27.8769L12.3786 27.8935L12.3902 27.9108C12.3909 27.9118 12.4077 27.9351 12.4613 27.9678C12.5166 28.0017 12.6023 28.04 12.7239 28.0699C12.9683 28.1301 13.3242 28.1475 13.7755 28.0593C14.6729 27.8837 15.8981 27.2973 17.217 25.9345C18.5903 24.5154 19.1488 23.5718 19.3399 22.9881C19.4537 22.6406 19.4304 22.4524 19.394 22.3562C19.3758 22.3596 19.3541 22.3642 19.3284 22.3707C19.1123 22.4251 18.8003 22.571 18.4176 22.8129ZM19.4746 22.3492C19.4742 22.3495 19.4698 22.3496 19.4622 22.3481C19.4711 22.348 19.4749 22.3488 19.4746 22.3492Z" fill="white"/>
</svg>
