<svg width="151" height="28" viewBox="0 0 151 28" fill="none" xmlns="http://www.w3.org/2000/svg">
<g clip-path="url(#clip0_1738_11)">
<path d="M22.0019 3.45312H1.90211C1.26062 3.45312 0.672598 3.98312 0.672598 4.67212V6.89813C0.672598 7.58713 1.26062 8.17013 1.90211 8.17013H22.0019C22.6968 8.17013 23.2314 7.58713 23.2849 6.89813V4.72512C23.2849 3.98312 22.6968 3.45312 22.0019 3.45312ZM22.0019 15.9611H1.90211C1.58136 15.9611 1.26062 16.1201 0.993339 16.3321C0.779511 16.5441 0.619141 16.8621 0.619141 17.2331V19.4591C0.619141 20.1481 1.20717 20.7311 1.84865 20.7311H21.9484C22.6434 20.7311 23.1779 20.2011 23.2314 19.4591V17.2331C23.2849 16.4911 22.6968 15.9611 22.0019 15.9611ZM13.235 22.1621H1.90211C1.58136 22.1621 1.26062 22.2681 1.0468 22.5331C0.832968 22.7451 0.672598 23.0631 0.672598 23.4341V25.6601C0.672598 26.3491 1.26062 26.9321 1.90211 26.9321H13.1815C13.8764 26.9321 14.411 26.3491 14.411 25.6601V23.3811C14.4645 22.7451 13.9299 22.1621 13.235 22.1621ZM23.2849 9.70713H1.90211C1.58136 9.70713 1.26062 9.81312 1.0468 10.0781C0.832968 10.2901 0.672598 10.6081 0.672598 10.9791V13.2051C0.672598 13.8941 1.26062 14.4771 1.90211 14.4771H23.2314C23.9263 14.4771 24.4609 13.8941 24.4609 13.2051V10.9791C24.5144 10.2371 23.9798 9.70713 23.2849 9.70713Z" fill="#00C3F7"/>
<path d="M46.645 8.4872C46.0036 7.8512 45.3086 7.3742 44.4533 7.0032C43.6515 6.6322 42.7427 6.4732 41.8339 6.4732C40.9786 6.4732 40.1233 6.6322 39.3215 7.0032C38.7869 7.2682 38.3058 7.5862 37.9316 8.0102V7.6392C37.9316 7.4272 37.8247 7.2682 37.7177 7.1092C37.5574 6.9502 37.397 6.8442 37.1832 6.8442H34.35C34.1361 6.8442 33.9223 6.9502 33.8154 7.1092C33.655 7.2682 33.6016 7.4272 33.6016 7.6392V26.1892C33.6016 26.4012 33.7085 26.5602 33.8154 26.7192C33.9758 26.8782 34.1361 26.9312 34.35 26.9312H37.1832C37.397 26.9312 37.5574 26.8782 37.7177 26.7192C37.8781 26.5602 37.9316 26.4012 37.9316 26.1892V19.8292C38.3592 20.2532 38.8403 20.6242 39.4284 20.7832C40.1768 21.0482 40.9786 21.2072 41.727 21.2072C42.6358 21.2072 43.5445 21.0482 44.3464 20.6772C45.2017 20.3592 45.9501 19.8292 46.5381 19.1932C47.1796 18.5042 47.7142 17.7092 48.0349 16.8612C48.4091 15.9072 48.6229 14.8472 48.5695 13.8402C48.5695 12.7802 48.4091 11.7732 48.0349 10.7662C47.8211 9.9712 47.2865 9.1762 46.645 8.4872ZM44.1326 15.2182C43.9722 15.5892 43.7584 15.9602 43.4911 16.2782C42.9031 16.9142 42.1012 17.2322 41.2459 17.2322C40.8182 17.2322 40.3906 17.1262 40.0164 16.9672C39.6422 16.8082 39.268 16.5432 39.0007 16.2782C38.7334 15.9602 38.4661 15.5892 38.3058 15.2182C37.985 14.3702 37.985 13.4692 38.3058 12.6212C38.4661 12.2502 38.68 11.8792 39.0007 11.5612C39.3214 11.2432 39.6422 11.0312 40.0164 10.8192C40.3906 10.6602 40.8182 10.5542 41.2459 10.5542C41.6736 10.5542 42.1012 10.6602 42.5289 10.8192C42.9031 10.9782 43.2238 11.2432 43.5445 11.5082C43.8118 11.8262 44.0257 12.1442 44.186 12.5682C44.4533 13.4162 44.4533 14.3702 44.1326 15.2182ZM64.0185 6.8972H61.1853C60.9715 6.8972 60.8111 7.0032 60.6507 7.1092C60.4904 7.2682 60.4369 7.4802 60.4369 7.6922V8.0102C60.0627 7.5862 59.6351 7.2682 59.154 7.0562C58.4056 6.6852 57.5502 6.5262 56.6949 6.5262C54.8774 6.5262 53.1133 7.2682 51.8304 8.5402C51.1889 9.2292 50.6543 10.0242 50.2801 10.8722C49.8525 11.8262 49.6921 12.8862 49.6921 13.9462C49.6921 15.0062 49.8525 16.0662 50.2801 17.0202C50.6543 17.8682 51.1889 18.6632 51.8304 19.3522C53.1133 20.6242 54.8239 21.3662 56.6415 21.3662C57.4968 21.3662 58.3521 21.2072 59.1005 20.8362C59.5816 20.5712 60.0627 20.2532 60.3835 19.8822V20.2532C60.3835 20.4652 60.4904 20.6242 60.5973 20.7832C60.7577 20.8892 60.918 20.9952 61.1319 20.9952H63.9651C64.1789 20.9952 64.3393 20.8892 64.4996 20.7832C64.66 20.6242 64.7135 20.4652 64.7135 20.2532V7.6922C64.7135 7.4802 64.66 7.3212 64.4996 7.1622C64.3927 6.9502 64.2324 6.8972 64.0185 6.8972ZM60.1696 15.1652C60.0093 15.5362 59.7954 15.9072 59.5281 16.2252C59.2609 16.4902 58.8867 16.7552 58.5125 16.9672C57.7106 17.3382 56.8018 17.3382 56 16.9672C55.6258 16.8082 55.2516 16.5432 54.9843 16.2252C54.717 15.9072 54.4497 15.5362 54.3428 15.1652C54.0221 14.3172 54.0221 13.4162 54.3428 12.5682C54.5032 12.1972 54.717 11.8262 54.9843 11.5082C55.2516 11.1902 55.6258 10.9782 56 10.7662C56.8018 10.3952 57.7106 10.3952 58.5125 10.7662C58.8867 10.9252 59.2074 11.1902 59.5281 11.4552C59.7954 11.7732 60.0093 12.0912 60.1696 12.5152C60.5438 13.4162 60.5438 14.3702 60.1696 15.1652ZM92.1903 13.5222C91.7626 13.1512 91.335 12.8862 90.8004 12.6742C90.2659 12.4622 89.7313 12.3032 89.1433 12.1972L87.005 11.7732C86.4704 11.6672 86.0428 11.5082 85.8289 11.3492C85.6686 11.2432 85.5617 11.0312 85.5617 10.8192C85.5617 10.6072 85.6686 10.3952 85.9893 10.2362C86.3635 10.0242 86.7912 9.9182 87.1654 9.9712C87.6999 9.9712 88.288 10.0772 88.7691 10.2892C89.2502 10.5012 89.7313 10.7662 90.1589 11.0312C90.8004 11.4022 91.335 11.3492 91.7092 10.9252L92.7249 9.7592C92.9387 9.5472 93.0456 9.2822 93.0456 9.0172C93.0456 8.7522 92.8852 8.4342 92.6714 8.2752C92.2438 7.9042 91.5488 7.4802 90.5866 7.1092C89.6778 6.7382 88.5018 6.5262 87.1119 6.5262C86.2566 6.5262 85.4547 6.6322 84.6529 6.8972C83.9579 7.1092 83.3165 7.4272 82.7819 7.8512C82.2473 8.2222 81.8731 8.7522 81.5524 9.3352C81.2851 9.9182 81.1247 10.5012 81.1247 11.1372C81.1247 12.3032 81.4989 13.2572 82.1939 13.9462C82.8888 14.6352 83.7976 15.1122 84.9736 15.3242L87.2188 15.8012C87.6999 15.9072 88.181 16.0132 88.6622 16.2252C88.9294 16.3312 89.0898 16.5432 89.0898 16.8612C89.0898 17.1262 88.9829 17.3382 88.6622 17.5502C88.3949 17.7622 87.9138 17.8682 87.3257 17.8682C86.7377 17.8682 86.0962 17.7622 85.5617 17.4972C85.0271 17.2322 84.546 16.9142 84.1183 16.5432C83.9045 16.3842 83.6907 16.2782 83.4768 16.1722C83.2095 16.1192 82.8888 16.1722 82.5681 16.4372L81.3386 17.3912C81.0178 17.6562 80.804 18.0802 80.9109 18.4512C80.9644 18.8752 81.3386 19.2462 81.9266 19.7232C83.4768 20.7832 85.3478 21.3132 87.2188 21.2602C88.0741 21.2602 88.9829 21.1542 89.7847 20.8892C90.5331 20.6772 91.1746 20.3592 91.7626 19.8822C92.2972 19.4582 92.7783 18.9282 93.0456 18.3452C93.3664 17.7622 93.4733 17.1262 93.4733 16.4372C93.4733 15.8542 93.3664 15.2712 93.0991 14.6882C92.8852 14.3172 92.5645 13.8932 92.1903 13.5222ZM104.485 16.9142C104.378 16.7022 104.111 16.5432 103.844 16.4902C103.577 16.4902 103.309 16.5962 103.096 16.7022C102.775 16.9142 102.347 17.0732 101.919 17.0732C101.813 17.0732 101.652 17.0732 101.492 17.0202C101.331 17.0202 101.225 16.9142 101.118 16.8082C101.011 16.7022 100.904 16.5432 100.797 16.3842C100.69 16.1722 100.636 15.9072 100.69 15.6422V10.5542H104.378C104.592 10.5542 104.806 10.4482 104.966 10.2892C105.127 10.1302 105.234 9.9712 105.234 9.7592V7.5862C105.234 7.3742 105.127 7.1622 104.966 7.0562C104.806 6.8972 104.646 6.8442 104.432 6.8442H100.743V3.3992C100.743 3.1872 100.69 2.9752 100.53 2.8692C100.369 2.7102 100.209 2.6572 99.995 2.6572H97.1618C96.948 2.6572 96.7341 2.7102 96.6272 2.8692C96.4669 3.0282 96.4134 3.2402 96.4134 3.3992V6.8972H94.8097C94.5959 6.8972 94.382 7.0032 94.2751 7.1622C94.1148 7.3212 94.0613 7.4802 94.0613 7.6922V9.8652C94.0613 10.0772 94.1148 10.2362 94.2751 10.3952C94.382 10.5542 94.5959 10.6602 94.8097 10.6602H96.4134V16.7022C96.4134 17.4442 96.5203 18.1332 96.841 18.7692C97.1083 19.2992 97.4825 19.7762 97.9102 20.1472C98.3378 20.5182 98.8724 20.7832 99.4604 20.9422C100.048 21.1012 100.636 21.2072 101.225 21.2072C102.026 21.2072 102.775 21.1012 103.523 20.8362C104.218 20.6242 104.86 20.2002 105.341 19.7232C105.661 19.4052 105.715 18.8752 105.448 18.5042L104.485 16.9142ZM119.988 6.8972H117.155C116.941 6.8972 116.78 7.0032 116.62 7.1092C116.46 7.2682 116.406 7.4802 116.406 7.6922V8.0102C116.032 7.5862 115.604 7.2682 115.123 7.0562C114.375 6.6852 113.52 6.5262 112.664 6.5262C110.847 6.5262 109.136 7.2682 107.853 8.5402C107.212 9.2292 106.677 10.0242 106.303 10.8722C105.875 11.8262 105.715 12.8862 105.715 13.8932C105.715 14.9532 105.875 15.9602 106.303 16.9672C106.677 17.8152 107.212 18.6102 107.853 19.2992C109.136 20.5712 110.847 21.3132 112.664 21.3132C113.52 21.3132 114.375 21.1542 115.123 20.7832C115.604 20.5182 116.086 20.2002 116.406 19.8292V20.2002C116.406 20.4122 116.46 20.5712 116.62 20.7302C116.78 20.8892 116.941 20.9422 117.155 20.9422H119.988C120.416 20.9422 120.736 20.6242 120.736 20.2002V7.6922C120.736 7.4802 120.683 7.3212 120.522 7.1622C120.362 6.9502 120.202 6.8972 119.988 6.8972ZM116.139 15.1652C115.979 15.5362 115.765 15.9072 115.498 16.2252C115.177 16.4902 114.856 16.7552 114.482 16.9672C114.108 17.1262 113.627 17.2322 113.199 17.2322C112.771 17.2322 112.344 17.1262 111.969 16.9672C111.595 16.8082 111.221 16.5432 110.954 16.2252C110.686 15.9072 110.419 15.5362 110.312 15.1652C109.991 14.3172 109.991 13.4162 110.312 12.5682C110.473 12.1972 110.686 11.8262 110.954 11.5082C111.274 11.1902 111.595 10.9782 111.969 10.7662C112.344 10.6072 112.771 10.5012 113.199 10.5012C113.627 10.5012 114.054 10.6072 114.482 10.7662C114.856 10.9252 115.177 11.1902 115.498 11.4552C115.765 11.7732 116.032 12.0912 116.139 12.5152C116.513 13.4162 116.513 14.3702 116.139 15.1652ZM135.49 16.7022L133.887 15.4832C133.566 15.2182 133.299 15.1652 133.031 15.2712C132.818 15.3772 132.604 15.5362 132.443 15.6952C132.069 16.1192 131.695 16.4902 131.214 16.8082C130.733 17.0732 130.198 17.2322 129.61 17.1792C128.969 17.1792 128.381 17.0202 127.846 16.6492C127.311 16.2782 126.937 15.7482 126.723 15.1652C126.563 14.7412 126.51 14.3172 126.51 13.8932C126.51 13.4692 126.563 12.9922 126.723 12.5682C126.884 12.1972 127.098 11.8262 127.365 11.5082C127.686 11.1902 128.006 10.9782 128.381 10.8192C128.755 10.6602 129.236 10.5542 129.664 10.5542C130.198 10.5542 130.786 10.6602 131.214 10.9252C131.695 11.2432 132.069 11.6142 132.443 12.0382C132.604 12.1972 132.818 12.3562 133.031 12.4622C133.299 12.5682 133.566 12.5152 133.887 12.2502L135.49 11.0312C135.704 10.8722 135.865 10.7132 135.918 10.5012C136.025 10.2362 135.971 9.9712 135.865 9.7592C135.223 8.8052 134.368 8.0102 133.352 7.4272C132.283 6.8442 131 6.5262 129.557 6.5262C128.541 6.5262 127.525 6.7382 126.617 7.1092C125.708 7.4802 124.906 8.0102 124.211 8.6992C123.516 9.3882 122.981 10.1832 122.607 11.0312C121.859 12.8862 121.859 15.0062 122.607 16.8612C122.981 17.7622 123.516 18.5572 124.211 19.1932C125.654 20.5712 127.525 21.3132 129.557 21.3132C131 21.3132 132.283 20.9952 133.352 20.4122C134.368 19.8292 135.223 19.0342 135.865 18.0802C136.025 17.8682 136.025 17.6032 135.918 17.3382C135.811 17.0732 135.651 16.8612 135.49 16.7022ZM150.512 19.6172L146.075 13.0982L149.87 8.1162C150.031 7.9042 150.084 7.5862 150.031 7.3212C149.977 7.1092 149.763 6.8972 149.336 6.8972H146.342C146.182 6.8972 146.021 6.9502 145.861 7.0032C145.647 7.1092 145.54 7.2152 145.433 7.4272L142.386 11.6672H141.638V1.6502C141.638 1.4382 141.584 1.2792 141.424 1.1202C141.264 0.961203 141.103 0.908203 140.89 0.908203H138.056C137.842 0.908203 137.682 0.961203 137.522 1.1202C137.361 1.2792 137.308 1.4382 137.308 1.6502V20.0942C137.308 20.3062 137.415 20.5182 137.522 20.6242C137.682 20.7832 137.842 20.8362 138.056 20.8362H140.89C141.103 20.8362 141.264 20.7302 141.424 20.6242C141.584 20.4652 141.638 20.3062 141.638 20.0942V15.2182H142.44L145.754 20.3062C145.968 20.6772 146.342 20.8892 146.716 20.8892H149.87C150.351 20.8892 150.565 20.6772 150.619 20.4652C150.726 20.2002 150.672 19.8822 150.512 19.6172ZM80.0556 6.8972H76.9016C76.6878 6.8972 76.4205 6.9502 76.2601 7.1622C76.0998 7.3212 75.9929 7.4802 75.9929 7.6922L73.6408 16.2782H73.0527L70.5403 7.6392C70.4868 7.4802 70.4334 7.2682 70.273 7.1092C70.1126 6.9502 69.8988 6.8442 69.685 6.8442H66.4241C65.9964 6.8442 65.7291 7.0032 65.6222 7.2682C65.5153 7.5332 65.5153 7.7982 65.6222 8.0102L69.6315 20.1472C69.685 20.3062 69.7919 20.5182 69.9522 20.6242C70.1126 20.7832 70.3264 20.8362 70.5403 20.8362H72.2509L72.0905 21.2072L71.7163 22.3202C71.6094 22.6382 71.3956 22.9562 71.0748 23.2212C70.8075 23.4332 70.4868 23.5392 70.1126 23.5392C69.8453 23.5392 69.5246 23.4862 69.2573 23.3802C68.99 23.2742 68.7227 23.1152 68.5089 22.9562C68.2951 22.7972 68.0278 22.7442 67.814 22.7442H67.7605C67.4398 22.7442 67.1725 22.9032 67.0656 23.1682L66.0499 24.6522C65.6222 25.2882 65.8895 25.7122 66.1568 25.9242C66.6914 26.4012 67.3329 26.7722 68.0278 27.0372C68.7762 27.3022 69.578 27.4082 70.4334 27.4082C71.8767 27.4082 73.1062 27.0372 74.015 26.2422C74.9772 25.3942 75.6721 24.2812 76.0463 23.0622L80.6971 8.0632C80.804 7.7982 80.804 7.5332 80.6971 7.2682C80.6971 7.0562 80.4832 6.8972 80.0556 6.8972Z" fill="white"/>
</g>
<defs>
<clipPath id="clip0_1738_11">
<rect width="150" height="26.5" fill="white" transform="translate(0.671875 0.908203)"/>
</clipPath>
</defs>
</svg>
